<svg width="157" height="28" viewBox="0 0 157 28" fill="none" xmlns="http://www.w3.org/2000/svg">
<g clip-path="url(#clip0_85_1405)">
<path fill-rule="evenodd" clip-rule="evenodd" d="M126.723 0.312317H131.343C132.032 0.312317 132.609 0.39847 133.072 0.570778C133.535 0.743087 133.906 0.969239 134.186 1.24924C134.466 1.52924 134.668 1.84962 134.792 2.21039C134.916 2.57116 134.978 2.93462 134.978 3.30078C134.978 3.61309 134.924 3.90924 134.816 4.18924C134.709 4.46924 134.555 4.71693 134.356 4.93232C134.157 5.1477 133.92 5.32808 133.645 5.47347C133.37 5.61886 133.066 5.71309 132.732 5.75616L132.765 5.78847C132.84 5.7777 133.018 5.81001 133.298 5.88539C133.578 5.96078 133.871 6.10347 134.178 6.31347C134.485 6.52347 134.76 6.81424 135.002 7.18578C135.244 7.55732 135.365 8.03385 135.365 8.61539C135.365 9.14309 135.269 9.60616 135.075 10.0046C134.881 10.4031 134.609 10.7396 134.259 11.0142C133.909 11.2889 133.486 11.4962 132.991 11.6362C132.495 11.7762 131.946 11.8462 131.343 11.8462H126.723V0.312317ZM131.343 5.54616C132.323 5.54616 133.055 5.32809 133.54 4.89193C134.025 4.45578 134.267 3.88232 134.267 3.17155C134.267 2.75155 134.186 2.39886 134.025 2.11347C133.863 1.82808 133.648 1.59655 133.379 1.41886C133.109 1.24116 132.8 1.11462 132.45 1.03924C132.1 0.963855 131.731 0.926163 131.343 0.926163H127.434V5.54616H131.343ZM131.343 11.2323C132.377 11.2323 133.187 11.0142 133.774 10.5781C134.361 10.1419 134.655 9.48771 134.655 8.61539C134.655 8.12001 134.552 7.71347 134.348 7.39578C134.143 7.07808 133.882 6.8277 133.564 6.64462C133.247 6.46155 132.891 6.33501 132.498 6.26501C132.105 6.19501 131.72 6.16001 131.343 6.16001H127.434V11.2323H131.343ZM137.029 7.77539V7.87232C137.029 8.35693 137.094 8.82001 137.223 9.26155C137.352 9.70309 137.544 10.0908 137.797 10.4246C138.05 10.7585 138.367 11.0223 138.75 11.2162C139.132 11.41 139.576 11.5069 140.082 11.5069C140.912 11.5069 141.569 11.2889 142.053 10.8527C142.538 10.4165 142.872 9.81078 143.055 9.03539H143.669C143.485 10.0046 143.09 10.7477 142.481 11.2646C141.873 11.7815 141.068 12.04 140.066 12.04C139.452 12.04 138.917 11.9296 138.459 11.7089C138.001 11.4881 137.619 11.1865 137.312 10.8042C137.005 10.4219 136.776 9.96963 136.625 9.44732C136.475 8.92501 136.399 8.36232 136.399 7.75924C136.399 7.1777 136.477 6.6204 136.634 6.08732C136.79 5.55424 137.024 5.08578 137.336 4.68193C137.649 4.27808 138.039 3.95501 138.507 3.7127C138.976 3.47039 139.528 3.34924 140.163 3.34924C140.745 3.34924 141.259 3.45693 141.706 3.67232C142.153 3.8877 142.527 4.18116 142.829 4.5527C143.13 4.92424 143.359 5.35501 143.515 5.84501C143.671 6.33501 143.749 6.86001 143.749 7.42001C143.749 7.47386 143.747 7.53578 143.741 7.60578C143.736 7.67578 143.733 7.73232 143.733 7.77539H137.029ZM143.119 7.24232C143.098 6.79001 143.022 6.36193 142.893 5.95809C142.764 5.55424 142.573 5.19886 142.32 4.89193C142.067 4.58501 141.76 4.34001 141.399 4.15693C141.038 3.97385 140.626 3.88232 140.163 3.88232C139.668 3.88232 139.232 3.97655 138.855 4.16501C138.478 4.35347 138.16 4.60116 137.902 4.90809C137.643 5.21501 137.444 5.57308 137.304 5.98232C137.164 6.39155 137.078 6.81154 137.045 7.24232H143.119ZM148.224 4.07616H146.415V9.87539C146.415 10.2092 146.452 10.4731 146.528 10.6669C146.603 10.8608 146.719 11.0089 146.875 11.1112C147.031 11.2135 147.22 11.2754 147.44 11.2969C147.661 11.3185 147.917 11.3239 148.208 11.3131V11.8462C147.895 11.8677 147.591 11.865 147.295 11.8381C146.999 11.8112 146.738 11.7304 146.512 11.5958C146.285 11.4612 146.105 11.2592 145.97 10.99C145.836 10.7208 145.779 10.3492 145.801 9.87539V4.07616H144.266V3.54309H145.801V0.958471H146.415V3.54309H148.224V4.07616ZM154.863 10.1985H154.831C154.734 10.4462 154.594 10.6804 154.411 10.9012C154.228 11.1219 154.004 11.3185 153.74 11.4908C153.477 11.6631 153.178 11.7977 152.844 11.8946C152.51 11.9915 152.144 12.04 151.745 12.04C150.862 12.04 150.179 11.8489 149.694 11.4665C149.209 11.0842 148.967 10.4946 148.967 9.6977C148.967 9.21308 149.064 8.81732 149.258 8.51039C149.452 8.20347 149.697 7.96116 149.993 7.78347C150.289 7.60578 150.617 7.47924 150.978 7.40385C151.339 7.32847 151.686 7.27462 152.02 7.24232L152.973 7.16155C153.415 7.12924 153.762 7.07809 154.015 7.00809C154.268 6.93809 154.459 6.84116 154.589 6.71732C154.718 6.59347 154.799 6.43463 154.831 6.24078C154.863 6.04693 154.879 5.80463 154.879 5.51385C154.879 5.2877 154.836 5.0777 154.75 4.88385C154.664 4.69001 154.529 4.5177 154.346 4.36693C154.163 4.21616 153.926 4.0977 153.635 4.01155C153.345 3.92539 152.989 3.88232 152.569 3.88232C151.826 3.88232 151.226 4.06539 150.768 4.43155C150.31 4.7977 150.06 5.35231 150.017 6.09539H149.403C149.446 5.18 149.74 4.49347 150.284 4.03578C150.827 3.57808 151.6 3.34924 152.602 3.34924C153.603 3.34924 154.333 3.54578 154.79 3.93886C155.248 4.33193 155.477 4.84616 155.477 5.48155V10.3115C155.477 10.43 155.48 10.5485 155.485 10.6669C155.49 10.7854 155.509 10.8931 155.542 10.99C155.574 11.0869 155.628 11.165 155.703 11.2242C155.779 11.2835 155.886 11.3131 156.026 11.3131C156.134 11.3131 156.285 11.2969 156.479 11.2646V11.7815C156.317 11.8246 156.15 11.8462 155.978 11.8462C155.73 11.8462 155.534 11.8139 155.388 11.7492C155.243 11.6846 155.132 11.5985 155.057 11.4908C154.982 11.3831 154.93 11.2565 154.904 11.1112C154.877 10.9658 154.863 10.8069 154.863 10.6346V10.1985ZM154.863 7.12924C154.712 7.31232 154.484 7.43616 154.177 7.50078C153.87 7.56539 153.528 7.61385 153.151 7.64616L152.117 7.74309C151.815 7.77539 151.514 7.82116 151.212 7.88039C150.911 7.93962 150.639 8.03924 150.397 8.17924C150.154 8.31924 149.958 8.51039 149.807 8.7527C149.656 8.99501 149.581 9.31001 149.581 9.6977C149.581 10.3116 149.775 10.7665 150.162 11.0627C150.55 11.3589 151.083 11.5069 151.762 11.5069C152.462 11.5069 153.016 11.3804 153.425 11.1273C153.835 10.8742 154.147 10.5835 154.362 10.255C154.578 9.92655 154.715 9.60886 154.774 9.30193C154.834 8.99501 154.863 8.7877 154.863 8.68001V7.12924Z" fill="#6B9B8F"/>
<path fill-rule="evenodd" clip-rule="evenodd" d="M21.1255 23.9572L21.7114 26.9231H25.3729V12.7895H14.3883V17.0735H20.1735C20.0027 18.9043 19.3985 20.3018 18.3611 21.266C17.3236 22.2302 15.8529 22.7123 13.9489 22.7123C12.6552 22.7123 11.5567 22.4621 10.6535 21.9617C9.75036 21.4613 9.01806 20.7961 8.45662 19.9662C7.89518 19.1362 7.48631 18.2025 7.23 17.1651C6.97369 16.1276 6.84554 15.0597 6.84554 13.9612C6.84554 12.8139 6.97369 11.7033 7.23 10.6292C7.48631 9.55517 7.89518 8.59708 8.45662 7.75492C9.01806 6.91276 9.75036 6.24149 10.6535 5.74107C11.5567 5.24066 12.6552 4.99046 13.9489 4.99046C15.3403 4.99046 16.5242 5.35661 17.5006 6.08892C18.477 6.82123 19.1361 7.91968 19.4778 9.3843H24.9702C24.8237 7.89527 24.4209 6.57713 23.7618 5.42984C23.1028 4.28255 22.2667 3.31836 21.2537 2.53723C20.2407 1.75609 19.1056 1.16415 17.8485 0.76138C16.5913 0.358609 15.2915 0.157227 13.9489 0.157227C11.9473 0.157227 10.147 0.511172 8.54816 1.21907C6.94928 1.92697 5.60062 2.90337 4.50215 4.1483C3.40369 5.39323 2.56154 6.85173 1.97569 8.52384C1.38984 10.196 1.09692 12.0084 1.09692 13.9612C1.09692 15.8652 1.38984 17.6411 1.97569 19.2888C2.56154 20.9365 3.40369 22.3706 4.50215 23.5911C5.60062 24.8116 6.94928 25.7697 8.54816 26.4654C10.147 27.1611 11.9473 27.5089 13.9489 27.5089C15.2183 27.5089 16.4754 27.2465 17.7203 26.7217C18.9652 26.1969 20.1003 25.2754 21.1255 23.9572ZM35.7717 22.0898V5.61292H39.8726C41.2884 5.61292 42.4784 5.8143 43.4426 6.21707C44.4068 6.61984 45.1818 7.19958 45.7677 7.9563C46.3535 8.71303 46.7746 9.6223 47.0309 10.6841C47.2872 11.746 47.4154 12.936 47.4154 14.2542C47.4154 15.6944 47.2323 16.9149 46.8662 17.9157C46.5 18.9165 46.0118 19.7281 45.4015 20.3506C44.7913 20.9731 44.0956 21.4186 43.3145 21.6871C42.5333 21.9556 41.7278 22.0898 40.8979 22.0898H35.7717ZM30.0231 0.779688V26.9231H41.3006C43.3023 26.9231 45.0415 26.5874 46.5183 25.9162C47.9951 25.2449 49.2278 24.3234 50.2165 23.1517C51.2051 21.98 51.9435 20.5886 52.4317 18.9775C52.9199 17.3664 53.164 15.6089 53.164 13.7049C53.164 11.5324 52.865 9.64062 52.2669 8.02953C51.6689 6.41845 50.8389 5.0759 49.7771 4.00184C48.7152 2.92779 47.4581 2.12225 46.0057 1.58523C44.5533 1.0482 42.9849 0.779688 41.3006 0.779688H30.0231Z" fill="white"/>
<path fill-rule="evenodd" clip-rule="evenodd" d="M57.155 0.779663V26.923H75.6458V22.0898H62.9036V0.779663H57.155ZM83.6646 5.06366V0.779663H78.4652V5.06366H83.6646ZM78.4652 7.99289V26.923H83.6646V7.99289H78.4652ZM98.2375 26.923L104.645 7.99289H99.4824L95.4913 20.9181H95.4181L91.427 7.99289H85.9713L92.4523 26.923H98.2375ZM119.548 15.4258H111.089C111.114 15.0597 111.193 14.6447 111.327 14.1809C111.462 13.7171 111.694 13.2777 112.023 12.8627C112.353 12.4478 112.792 12.0999 113.341 11.8192C113.891 11.5385 114.58 11.3981 115.41 11.3981C116.679 11.3981 117.625 11.7399 118.248 12.4234C118.87 13.1068 119.304 14.1077 119.548 15.4258ZM111.089 18.7212H124.747C124.845 17.2566 124.723 15.853 124.381 14.5104C124.039 13.1679 123.484 11.9718 122.715 10.9221C121.946 9.87248 120.963 9.03644 119.767 8.41397C118.571 7.79151 117.168 7.48028 115.557 7.48028C114.116 7.48028 112.804 7.73658 111.62 8.2492C110.437 8.76182 109.417 9.46361 108.563 10.3546C107.709 11.2456 107.05 12.3013 106.586 13.5218C106.122 14.7423 105.89 16.0605 105.89 17.4763C105.89 18.9409 106.116 20.2835 106.567 21.504C107.019 22.7245 107.66 23.7741 108.49 24.6529C109.32 25.5317 110.333 26.209 111.529 26.685C112.725 27.1611 114.068 27.399 115.557 27.399C117.705 27.399 119.535 26.9109 121.049 25.9344C122.562 24.958 123.685 23.3348 124.417 21.0646H119.841C119.67 21.6504 119.206 22.2058 118.449 22.7306C117.692 23.2554 116.789 23.5178 115.74 23.5178C114.275 23.5178 113.152 23.1395 112.371 22.3827C111.59 21.626 111.163 20.4055 111.089 18.7212Z" fill="#6B9B8F"/>
</g>
<defs>
<clipPath id="clip0_85_1405">
<rect width="156.154" height="28" fill="white" transform="translate(0.782471)"/>
</clipPath>
</defs>
</svg>
